<svg width="400" height="400" xmlns="http://www.w3.org/2000/svg">
 <!-- Created with Method Draw - http://github.com/duopixel/Method-Draw/ -->

 <g>
  <title>background</title>
  <rect fill="#fff" id="canvas_background" height="402" width="402" y="-1" x="-1"/>
  <g display="none" overflow="visible" y="0" x="0" height="100%" width="100%" id="canvasGrid">
   <rect fill="url(#gridpattern)" stroke-width="0" y="0" x="0" height="100%" width="100%"/>
  </g>
 </g>
 <g>
  <title>Layer 1</title>
  <g stroke="null" id="svg_107">
   <path stroke="null" id="svg_91" fill="#000002" d="m315.177931,317.136196l-230.355869,0c-1.882375,0 -3.407631,-1.710252 -3.407631,-3.820938l0,-226.630519c0,-2.110686 1.525256,-3.820938 3.407631,-3.820938l206.736896,0c1.882375,0 3.407631,1.710252 3.407631,3.820938l0,112.988187l20.211342,0c1.882375,0 3.407631,1.710252 3.407631,3.820938l0,109.821394c0,2.110686 -1.525256,3.820938 -3.407631,3.820938zm-171.744613,-7.641876l168.336982,0l0,-102.179519l-70.471176,0c-1.882375,0 -3.407631,-1.710252 -3.407631,-3.820938l0,-7.356069l-8.41276,0c-1.882375,0 -3.407631,-1.710252 -3.407631,-3.820938s1.525256,-3.820938 3.407631,-3.820938l8.41276,0l0,-24.709241c0,-2.110686 1.525256,-3.820938 3.407631,-3.820938s3.407631,1.710252 3.407631,3.820938l0,35.886248l19.80379,0l0,-109.16725l-19.80379,0l0,27.938697c0,2.110686 -1.525256,3.820938 -3.407631,3.820938s-3.407631,-1.710252 -3.407631,-3.820938l0,-11.718052l-53.566599,0c-1.882375,0 -3.407631,-1.710252 -3.407631,-3.820938l0,-12.399707l-12.44058,0l0,17.74902c0,2.110686 -1.525256,3.820938 -3.407631,3.820938s-3.407631,-1.710252 -3.407631,-3.820938l0,-17.74902l-3.68842,0l0,9.853434c0,2.110686 -1.525256,3.820938 -3.407631,3.820938l-1.061818,0c0.609284,1.560471 0.948685,3.284478 0.948685,5.094074l0,9.934438c0,7.022884 -5.09509,12.73595 -11.358316,12.73595c-6.263226,0 -11.358316,-5.713066 -11.358316,-12.73595l0,-9.934438c0,-1.811125 0.3394,-3.533603 0.948685,-5.094074l-1.061818,0c-1.882375,0 -3.407631,-1.710252 -3.407631,-3.820938l0,-9.853434l-12.383332,0l0,50.609085c0,2.110686 -1.525256,3.820938 -3.407631,3.820938l-4.429921,0l0,21.45533l53.667465,0l0,-17.634392c0,-2.110686 1.525256,-3.820938 3.407631,-3.820938s3.407631,1.710252 3.407631,3.820938l0,39.737753l8.41276,0c1.882375,0 3.407631,1.710252 3.407631,3.820938s-1.525256,3.820938 -3.407631,3.820938l-8.41276,0l0,18.722595c0,2.110686 -1.525256,3.820938 -3.407631,3.820938s-3.407631,-1.710252 -3.407631,-3.820938l0,-40.825956l-48.669152,0l0,109.73122l27.03342,0c1.882375,0 3.407631,1.710252 3.407631,3.820938l0,21.909257zm-55.203626,0l48.388363,0l0,-18.08832l-27.03342,0c-1.882375,0 -3.407631,-1.710252 -3.407631,-3.820938l0,-66.484318l-17.947312,0l0,88.393575zm0,-96.035451l17.947312,0l0,-39.425965l-17.947312,0l0,39.425965zm194.916505,-13.785944l5.005129,0l0,-109.16725l-5.005129,0l0,109.16725zm-11.820391,0l5.005129,0l0,-109.16725l-5.005129,0l0,109.16725zm-183.096114,-34.613111l12.948999,0l0,-20.124115l-12.948999,0l0,20.124115zm16.35663,-27.765991l4.429921,0l0,-46.788147l-20.78655,0l0,46.788147l16.35663,0zm38.506233,-33.113775c-2.50529,0 -4.543054,2.286449 -4.543054,5.094074l0,9.934438c0,2.809153 2.037763,5.094074 4.543054,5.094074s4.543054,-2.284921 4.543054,-5.094074l0,-9.934438c0,-2.807625 -2.037763,-5.094074 -4.543054,-5.094074zm44.639969,-5.095603l50.158968,0l0,-8.57877l-50.158968,0l0,8.57877zm-44.639969,-2.546273l8.065182,0l0,-6.032497l-16.130363,0l0,6.032497l8.065182,0zm74.567149,201.617132l-27.322387,0c-1.882375,0 -3.407631,-1.710252 -3.407631,-3.820938l0,-70.017921c0,-2.110686 1.525256,-3.820938 3.407631,-3.820938l27.322387,0c1.882375,0 3.407631,1.710252 3.407631,3.820938l0,70.019449c0,2.109158 -1.526619,3.819409 -3.407631,3.819409zm-23.914756,-7.641876l20.507125,0l0,-3.820938l-12.094365,0c-1.882375,0 -3.407631,-1.710252 -3.407631,-3.820938l0,-47.092294c0,-2.110686 1.525256,-3.820938 3.407631,-3.820938l12.094365,0l0,-3.820938l-20.507125,0l0,62.376045zm11.820391,-11.462813l8.686733,0l0,-39.450419l-8.686733,0l0,39.450419zm85.993618,16.812126c-1.882375,0 -3.407631,-1.710252 -3.407631,-3.820938l0,-65.72013c0,-2.110686 1.525256,-3.820938 3.407631,-3.820938s3.407631,1.710252 3.407631,3.820938l0,11.854077c1.771968,0.134497 3.173186,1.789727 3.173186,3.811768l0,34.38844c0,2.02204 -1.399855,3.677271 -3.173186,3.811768l0,11.854077c0,2.110686 -1.525256,3.820938 -3.407631,3.820938zm-32.850928,-4.585125c-10.83763,0 -19.326721,-13.090533 -19.326721,-29.803315s8.489091,-29.803315 19.326721,-29.803315s19.326721,13.090533 19.326721,29.803315s-8.489091,29.803315 -19.326721,29.803315zm0,-51.964754c-6.782549,0 -12.511459,10.148411 -12.511459,22.161439s5.730273,22.161439 12.511459,22.161439s12.511459,-10.148411 12.511459,-22.161439s-5.730273,-22.161439 -12.511459,-22.161439z"/>
   <g stroke="null" transform="matrix(1.8938985708763068,0,0,2.2969044202867925,-406.3877220569914,-536.302953131008) " id="svg_92"/>
   <g stroke="null" transform="matrix(1.8938985708763068,0,0,2.2969044202867925,-406.3877220569914,-536.302953131008) " id="svg_93"/>
   <g stroke="null" transform="matrix(1.8938985708763068,0,0,2.2969044202867925,-406.3877220569914,-536.302953131008) " id="svg_94"/>
   <g stroke="null" transform="matrix(1.8938985708763068,0,0,2.2969044202867925,-406.3877220569914,-536.302953131008) " id="svg_95"/>
   <g stroke="null" transform="matrix(1.8938985708763068,0,0,2.2969044202867925,-406.3877220569914,-536.302953131008) " id="svg_96"/>
   <g stroke="null" transform="matrix(1.8938985708763068,0,0,2.2969044202867925,-406.3877220569914,-536.302953131008) " id="svg_97"/>
   <g stroke="null" transform="matrix(1.8938985708763068,0,0,2.2969044202867925,-406.3877220569914,-536.302953131008) " id="svg_98"/>
   <g stroke="null" transform="matrix(1.8938985708763068,0,0,2.2969044202867925,-406.3877220569914,-536.302953131008) " id="svg_99"/>
   <g stroke="null" transform="matrix(1.8938985708763068,0,0,2.2969044202867925,-406.3877220569914,-536.302953131008) " id="svg_100"/>
   <g stroke="null" transform="matrix(1.8938985708763068,0,0,2.2969044202867925,-406.3877220569914,-536.302953131008) " id="svg_101"/>
   <g stroke="null" transform="matrix(1.8938985708763068,0,0,2.2969044202867925,-406.3877220569914,-536.302953131008) " id="svg_102"/>
   <g stroke="null" transform="matrix(1.8938985708763068,0,0,2.2969044202867925,-406.3877220569914,-536.302953131008) " id="svg_103"/>
   <g stroke="null" transform="matrix(1.8938985708763068,0,0,2.2969044202867925,-406.3877220569914,-536.302953131008) " id="svg_104"/>
   <g stroke="null" transform="matrix(1.8938985708763068,0,0,2.2969044202867925,-406.3877220569914,-536.302953131008) " id="svg_105"/>
   <g stroke="null" transform="matrix(1.8938985708763068,0,0,2.2969044202867925,-406.3877220569914,-536.302953131008) " id="svg_106"/>
  </g>
 </g>
</svg>