<svg width="400" height="400" xmlns="http://www.w3.org/2000/svg">
 <!-- Created with Method Draw - http://github.com/duopixel/Method-Draw/ -->

 <g>
  <title>background</title>
  <rect fill="#fff" id="canvas_background" height="402" width="402" y="-1" x="-1"/>
  <g display="none" overflow="visible" y="0" x="0" height="100%" width="100%" id="canvasGrid">
   <rect fill="url(#gridpattern)" stroke-width="0" y="0" x="0" height="100%" width="100%"/>
  </g>
 </g>
 <g>
  <title>Layer 1</title>
  <g stroke="null" id="svg_86">
   <g stroke="null" transform="matrix(7.878432048984383,0,0,7.878432048984383,195.21184995933336,227.5997589310458) " id="svg_59">
    <path stroke="null" id="svg_60" d="m12.301254,2.278793l-23.388,0c-0.276,0 -0.5,-0.224 -0.5,-0.5l0,-6.752c0,-1.139 0.926,-2.064 2.063,-2.064l20.26,0c1.139,0 2.064,0.926 2.064,2.064l0,6.752c0.001,0.277 -0.223,0.5 -0.499,0.5zm-22.888,-1l22.388,0l0,-6.252c0,-0.587 -0.478,-1.064 -1.064,-1.064l-20.26,0c-0.586,0 -1.063,0.478 -1.063,1.064l0,6.252l-0.001,0z"/>
    <path stroke="null" id="svg_61" d="m10.736254,10.484793l-20.259,0c-1.138,0 -2.063,-0.926 -2.063,-2.064l0,-6.752c0,-0.276 0.224,-0.5 0.5,-0.5l23.388,0c0.276,0 0.5,0.224 0.5,0.5l0,6.752c-0.001,1.139 -0.927,2.064 -2.066,2.064zm-21.323,-8.316l0,6.252c0,0.587 0.478,1.064 1.063,1.064l20.26,0c0.587,0 1.064,-0.478 1.064,-1.064l0,-6.252l-22.387,0z"/>
    <g stroke="null" id="svg_62">
     <path stroke="null" id="svg_63" d="m-7.862746,12.996793c-0.063,0 -0.129,-0.012 -0.191,-0.038c-0.255,-0.105 -0.376,-0.398 -0.271,-0.653l1.04,-2.512c0.106,-0.255 0.398,-0.379 0.653,-0.271c0.255,0.105 0.376,0.398 0.271,0.653l-1.04,2.512c-0.08,0.193 -0.266,0.309 -0.462,0.309z"/>
     <path stroke="null" id="svg_64" d="m9.076254,12.996793c-0.196,0 -0.382,-0.116 -0.462,-0.309l-1.039,-2.512c-0.105,-0.256 0.016,-0.548 0.271,-0.653c0.256,-0.107 0.548,0.017 0.653,0.271l1.039,2.512c0.105,0.256 -0.016,0.548 -0.271,0.653c-0.062,0.026 -0.127,0.038 -0.191,0.038z"/>
    </g>
    <path stroke="null" id="svg_65" d="m1.776254,-2.918207l-2.339,0c-0.276,0 -0.5,-0.224 -0.5,-0.5s0.224,-0.5 0.5,-0.5l2.339,0c0.276,0 0.5,0.224 0.5,0.5s-0.223,0.5 -0.5,0.5z"/>
    <path stroke="null" id="svg_66" d="m1.776254,5.287793l-2.339,0c-0.276,0 -0.5,-0.224 -0.5,-0.5s0.224,-0.5 0.5,-0.5l2.339,0c0.276,0 0.5,0.224 0.5,0.5s-0.223,0.5 -0.5,0.5z"/>
    <path stroke="null" id="svg_67" d="m1.357254,-6.037207l-6.65,0c-0.276,0 -0.5,-0.224 -0.5,-0.5l0,-2.026c0,-0.276 0.224,-0.5 0.5,-0.5l6.65,0c0.276,0 0.5,0.224 0.5,0.5l0,2.025c0,0.277 -0.224,0.501 -0.5,0.501zm-6.151,-1l5.65,0l0,-1.026l-5.65,0l0,1.026z"/>
    <path stroke="null" id="svg_68" d="m2.424254,-13.640207l-8.786,0c-0.159,0 -0.31,-0.076 -0.404,-0.205c-0.094,-0.129 -0.12,-0.295 -0.072,-0.447l1.716,-5.363c0.065,-0.207 0.258,-0.348 0.476,-0.348l5.354,0c0.218,0 0.41,0.141 0.477,0.348l1.716,5.363c0.048,0.152 0.021,0.318 -0.072,0.447c-0.096,0.129 -0.246,0.205 -0.405,0.205zm-8.102,-1l7.417,0l-1.396,-4.363l-4.624,0l-1.397,4.363z"/>
    <path stroke="null" id="svg_69" d="m-1.968746,-8.063207c-0.276,0 -0.5,-0.224 -0.5,-0.5l0,-5.577c0,-0.276 0.224,-0.5 0.5,-0.5s0.5,0.224 0.5,0.5l0,5.577c0,0.277 -0.223,0.5 -0.5,0.5z"/>
    <path stroke="null" id="svg_70" d="m0.607254,-11.924207c-0.276,0 -0.5,-0.224 -0.5,-0.5l0,-1.716c0,-0.276 0.224,-0.5 0.5,-0.5s0.5,0.224 0.5,0.5l0,1.716c0,0.276 -0.224,0.5 -0.5,0.5z"/>
   </g>
   <g stroke="null" transform="matrix(7.878432048984383,0,0,7.878432048984383,195.21184995933336,227.5997589310458) " id="svg_71"/>
   <g stroke="null" transform="matrix(7.878432048984383,0,0,7.878432048984383,195.21184995933336,227.5997589310458) " id="svg_72"/>
   <g stroke="null" transform="matrix(7.878432048984383,0,0,7.878432048984383,195.21184995933336,227.5997589310458) " id="svg_73"/>
   <g stroke="null" transform="matrix(7.878432048984383,0,0,7.878432048984383,195.21184995933336,227.5997589310458) " id="svg_74"/>
   <g stroke="null" transform="matrix(7.878432048984383,0,0,7.878432048984383,195.21184995933336,227.5997589310458) " id="svg_75"/>
   <g stroke="null" transform="matrix(7.878432048984383,0,0,7.878432048984383,195.21184995933336,227.5997589310458) " id="svg_76"/>
   <g stroke="null" transform="matrix(7.878432048984383,0,0,7.878432048984383,195.21184995933336,227.5997589310458) " id="svg_77"/>
   <g stroke="null" transform="matrix(7.878432048984383,0,0,7.878432048984383,195.21184995933336,227.5997589310458) " id="svg_78"/>
   <g stroke="null" transform="matrix(7.878432048984383,0,0,7.878432048984383,195.21184995933336,227.5997589310458) " id="svg_79"/>
   <g stroke="null" transform="matrix(7.878432048984383,0,0,7.878432048984383,195.21184995933336,227.5997589310458) " id="svg_80"/>
   <g stroke="null" transform="matrix(7.878432048984383,0,0,7.878432048984383,195.21184995933336,227.5997589310458) " id="svg_81"/>
   <g stroke="null" transform="matrix(7.878432048984383,0,0,7.878432048984383,195.21184995933336,227.5997589310458) " id="svg_82"/>
   <g stroke="null" transform="matrix(7.878432048984383,0,0,7.878432048984383,195.21184995933336,227.5997589310458) " id="svg_83"/>
   <g stroke="null" transform="matrix(7.878432048984383,0,0,7.878432048984383,195.21184995933336,227.5997589310458) " id="svg_84"/>
   <g stroke="null" transform="matrix(7.878432048984383,0,0,7.878432048984383,195.21184995933336,227.5997589310458) " id="svg_85"/>
  </g>
 </g>
</svg>