<svg width="400" height="400" xmlns="http://www.w3.org/2000/svg">
 <!-- Created with Method Draw - http://github.com/duopixel/Method-Draw/ -->

 <g>
  <title>background</title>
  <rect fill="#fff" id="canvas_background" height="402" width="402" y="-1" x="-1"/>
  <g display="none" overflow="visible" y="0" x="0" height="100%" width="100%" id="canvasGrid">
   <rect fill="url(#gridpattern)" stroke-width="0" y="0" x="0" height="100%" width="100%"/>
  </g>
 </g>
 <g>
  <title>Layer 1</title>
  <g stroke="null" id="svg_113">
   <g stroke="null" transform="matrix(0.9948366865981544,0,0,0.9948366865981544,-778.3841761885267,-750.071237589678) " id="svg_111">
    <path stroke="null" id="svg_112" d="m1120.242585,925.257951l-93.71,-70.666c-2.496,-1.882 -5.934,-1.882 -8.43,0l-15.405,11.617l-15.405,-11.617c-2.496,-1.882 -5.934,-1.882 -8.43,0l-15.021,11.327l-15.021,-11.327c-2.496,-1.882 -5.934,-1.882 -8.43,0l-93.71,70.666c-1.753,1.323 -2.784,3.393 -2.784,5.589l0,118.977c0,3.866 3.134,7 7,7l38.472,0l39.238,0l109.711,0l38.472,0l39.238,0c3.866,0 7,-3.134 7,-7l0,-118.977c0,-2.196 -1.031,-4.266 -2.785,-5.589zm-11.215,117.566l-25.238,0l0,-111.977c0,-2.197 -1.031,-4.266 -2.785,-5.589l-66.68,-50.282l7.993,-6.028l86.71,65.388l0,108.488zm-63.71,0l0,-111.977c0,-2.197 -1.031,-4.266 -2.785,-5.589l-67.064,-50.571l7.61,-5.738l86.711,65.388l0,108.488l-24.472,0l0,-0.001zm-89.247,-0.001l-20.464,0l-2.464,0l0,-50.76l22.928,0l0,50.76zm14,0l0,-57.76c0,-3.866 -3.134,-7 -7,-7l-36.928,0c-3.866,0 -7,3.134 -7,7l0,57.76l-22.774,0l-38.472,0l0,-108.488l86.71,-65.388l86.711,65.388l0,108.488l-61.247,0z"/>
   </g>
  </g>
 </g>
</svg>